HIERARCHY
ROOT hips
{
  OFFSET 0 10.680822821525009 1.3929502295107734
  CHANNELS 6 Xposition Yposition Zposition Yrotation Xrotation Zrotation
  JOINT spine
  {
    OFFSET -7.042017322922631e-31 0.6058489940359625 0
    CHANNELS 3 Yrotation Xrotation Zrotation
    JOINT chest
    {
      OFFSET 0 1.2699794144455032 0
      CHANNELS 3 Yrotation Xrotation Zrotation
      JOINT upperChest
      {
        OFFSET 0 1.217799211677689 0
        CHANNELS 3 Yrotation Xrotation Zrotation
        JOINT neck
        {
          OFFSET 0 1.5248826104153006 0
          CHANNELS 3 Yrotation Xrotation Zrotation
          JOINT head
          {
            OFFSET 0 0.8197772727844447 0
            CHANNELS 3 Yrotation Xrotation Zrotation
            JOINT leftEye
            {
              OFFSET 0.2793952361220866 0.6769952096623495 0.1830357412467788
              CHANNELS 3 Yrotation Xrotation Zrotation
              End Site
              {
                OFFSET 0.2793952361220866 0.6769952096623495 0.1830357412467788
              }
            }
            JOINT rightEye
            {
              OFFSET -0.27939522230689573 0.676995205357064 0.18303631459760622
              CHANNELS 3 Yrotation Xrotation Zrotation
              End Site
              {
                OFFSET -0.27939522230689573 0.676995205357064 0.18303631459760622
              }
            }
          }
        }
        JOINT leftShoulder
        {
          OFFSET 0.41486978509200423 1.1670505408695453 0
          CHANNELS 3 Yrotation Xrotation Zrotation
          JOINT leftUpperArm
          {
            OFFSET 0.9737926108153417 0 0
            CHANNELS 3 Yrotation Xrotation Zrotation
            JOINT leftLowerArm
            {
              OFFSET 2.5269332222665284 0 0
              CHANNELS 3 Yrotation Xrotation Zrotation
              JOINT leftHand
              {
                OFFSET 2.4263782738425914 0 0
                CHANNELS 3 Yrotation Xrotation Zrotation
                JOINT leftIndexProximal
                {
                  OFFSET 0.724320348022514 0.08170607082582437 0.20360061616140124
                  CHANNELS 3 Yrotation Xrotation Zrotation
                  JOINT leftIndexIntermediate
                  {
                    OFFSET 0.36548960630744587 -0.010566596513783999 -0.01414783573280308
                    CHANNELS 3 Yrotation Xrotation Zrotation
                    JOINT leftIndexDistal
                    {
                      OFFSET 0.22502819650693362 -0.007863819831430696 -0.007567681939621526
                      CHANNELS 3 Yrotation Xrotation Zrotation
                      End Site
                      {
                        OFFSET 0.22502819650693362 -0.007863819831430696 -0.007567681939621526
                      }
                    }
                  }
                }
                JOINT leftLittleProximal
                {
                  OFFSET 0.6720322998298205 0.08170601055037707 -0.3230036039466837
                  CHANNELS 3 Yrotation Xrotation Zrotation
                  JOINT leftLittleIntermediate
                  {
                    OFFSET 0.34583592281688713 5.476543019078406e-8 1.3869203337180114e-7
                    CHANNELS 3 Yrotation Xrotation Zrotation
                    JOINT leftLittleDistal
                    {
                      OFFSET 0.19925728062053938 0.003098047439490381 0.0038303983709246925
                      CHANNELS 3 Yrotation Xrotation Zrotation
                      End Site
                      {
                        OFFSET 0.19925728062053938 0.003098047439490381 0.0038303983709246925
                      }
                    }
                  }
                }
                JOINT leftMiddleProximal
                {
                  OFFSET 0.7300436596551069 0.0817073395107144 0.022661722987926763
                  CHANNELS 3 Yrotation Xrotation Zrotation
                  JOINT leftMiddleIntermediate
                  {
                    OFFSET 0.40758254347686607 -0.0000012383587111308714 2.408460318820138e-7
                    CHANNELS 3 Yrotation Xrotation Zrotation
                    JOINT leftMiddleDistal
                    {
                      OFFSET 0.2514490105498507 0.0000013869132886590307 9.738618134136345e-8
                      CHANNELS 3 Yrotation Xrotation Zrotation
                      End Site
                      {
                        OFFSET 0.2514490105498507 0.0000013869132886590307 9.738618134136345e-8
                      }
                    }
                  }
                }
                JOINT leftRingProximal
                {
                  OFFSET 0.7217261161191838 0.08170601902187746 -0.15043395722184966
                  CHANNELS 3 Yrotation Xrotation Zrotation
                  JOINT leftRingIntermediate
                  {
                    OFFSET 0.37808807487521556 0.0000013754022405443322 2.2046919317952884e-7
                    CHANNELS 3 Yrotation Xrotation Zrotation
                    JOINT leftRingDistal
                    {
                      OFFSET 0.21812105442344254 -0.002713483731960231 -0.004991354517454624
                      CHANNELS 3 Yrotation Xrotation Zrotation
                      End Site
                      {
                        OFFSET 0.21812105442344254 -0.002713483731960231 -0.004991354517454624
                      }
                    }
                  }
                }
                JOINT leftThumbProximal
                {
                  OFFSET 0.10793587079521427 -0.1652791240518252 -0.07775251827190094
                  CHANNELS 3 Yrotation Xrotation Zrotation
                  JOINT leftThumbIntermediate
                  {
                    OFFSET 0.40355819082296684 -0.017484006740276614 0.3177776014416309
                    CHANNELS 3 Yrotation Xrotation Zrotation
                    JOINT leftThumbDistal
                    {
                      OFFSET 0.2318764658022603 -0.018510186824293617 0.21396001800186287
                      CHANNELS 3 Yrotation Xrotation Zrotation
                      End Site
                      {
                        OFFSET 0.2318764658022603 -0.018510186824293617 0.21396001800186287
                      }
                    }
                  }
                }
              }
            }
          }
        }
        JOINT rightShoulder
        {
          OFFSET -0.4148697850920044 1.1670505408695453 0
          CHANNELS 3 Yrotation Xrotation Zrotation
          JOINT rightUpperArm
          {
            OFFSET -0.9737926108153414 0 0
            CHANNELS 3 Yrotation Xrotation Zrotation
            JOINT rightLowerArm
            {
              OFFSET -2.5269332222665293 0 0
              CHANNELS 3 Yrotation Xrotation Zrotation
              JOINT rightHand
              {
                OFFSET -2.42637827384259 0 0
                CHANNELS 3 Yrotation Xrotation Zrotation
                JOINT rightIndexProximal
                {
                  OFFSET -0.724320348022514 0.08170607082582437 0.20360061616140124
                  CHANNELS 3 Yrotation Xrotation Zrotation
                  JOINT rightIndexIntermediate
                  {
                    OFFSET -0.36548960630744587 -0.010566596513783999 -0.01414783573280308
                    CHANNELS 3 Yrotation Xrotation Zrotation
                    JOINT rightIndexDistal
                    {
                      OFFSET -0.22502819650693362 -0.007863819831430696 -0.007567681939621526
                      CHANNELS 3 Yrotation Xrotation Zrotation
                      End Site
                      {
                        OFFSET -0.22502819650693362 -0.007863819831430696 -0.007567681939621526
                      }
                    }
                  }
                }
                JOINT rightLittleProximal
                {
                  OFFSET -0.6720322998298205 0.08170601055037707 -0.3230036039466837
                  CHANNELS 3 Yrotation Xrotation Zrotation
                  JOINT rightLittleIntermediate
                  {
                    OFFSET -0.34583592281688713 5.476543019078406e-8 1.3869203337180114e-7
                    CHANNELS 3 Yrotation Xrotation Zrotation
                    JOINT rightLittleDistal
                    {
                      OFFSET -0.19925728062053938 0.003098047439490381 0.0038303983709246925
                      CHANNELS 3 Yrotation Xrotation Zrotation
                      End Site
                      {
                        OFFSET -0.19925728062053938 0.003098047439490381 0.0038303983709246925
                      }
                    }
                  }
                }
                JOINT rightMiddleProximal
                {
                  OFFSET -0.7300436596551069 0.0817073395107144 0.022661722987926763
                  CHANNELS 3 Yrotation Xrotation Zrotation
                  JOINT rightMiddleIntermediate
                  {
                    OFFSET -0.40758254347686607 -0.0000012383587111308714 2.408460318820138e-7
                    CHANNELS 3 Yrotation Xrotation Zrotation
                    JOINT rightMiddleDistal
                    {
                      OFFSET -0.2514490105498507 0.0000013869132886590307 9.738618134136345e-8
                      CHANNELS 3 Yrotation Xrotation Zrotation
                      End Site
                      {
                        OFFSET -0.2514490105498507 0.0000013869132886590307 9.738618134136345e-8
                      }
                    }
                  }
                }
                JOINT rightRingProximal
                {
                  OFFSET -0.7217261161191838 0.08170601902187746 -0.15043395722184966
                  CHANNELS 3 Yrotation Xrotation Zrotation
                  JOINT rightRingIntermediate
                  {
                    OFFSET -0.37808807487521556 0.0000013754022405443322 2.2046919317952884e-7
                    CHANNELS 3 Yrotation Xrotation Zrotation
                    JOINT rightRingDistal
                    {
                      OFFSET -0.21812105442344254 -0.002713483731960231 -0.004991354517454624
                      CHANNELS 3 Yrotation Xrotation Zrotation
                      End Site
                      {
                        OFFSET -0.21812105442344254 -0.002713483731960231 -0.004991354517454624
                      }
                    }
                  }
                }
                JOINT rightThumbProximal
                {
                  OFFSET -0.10793587079521427 -0.1652791240518252 -0.07775251827190094
                  CHANNELS 3 Yrotation Xrotation Zrotation
                  JOINT rightThumbIntermediate
                  {
                    OFFSET -0.40355819082296684 -0.017484006740276614 0.3177776014416309
                    CHANNELS 3 Yrotation Xrotation Zrotation
                    JOINT rightThumbDistal
                    {
                      OFFSET -0.2318764658022603 -0.018510186824293617 0.21396001800186287
                      CHANNELS 3 Yrotation Xrotation Zrotation
                      End Site
                      {
                        OFFSET -0.2318764658022603 -0.018510186824293617 0.21396001800186287
                      }
                    }
                  }
                }
              }
            }
          }
        }
      }
    }
  }
  JOINT leftUpperLeg
  {
    OFFSET 0.8486251390888677 -0.4421577294694363 0
    CHANNELS 3 Yrotation Xrotation Zrotation
    JOINT leftLowerLeg
    {
      OFFSET 0 -4.10147812638609 0
      CHANNELS 3 Yrotation Xrotation Zrotation
      JOINT leftFoot
      {
        OFFSET -0.0002543926476658853 -4.77292286812444 0.007402811231737388
        CHANNELS 3 Yrotation Xrotation Zrotation
        JOINT leftToes
        {
          OFFSET 0 -0.7027875951174846 1.2062924140498823
          CHANNELS 3 Yrotation Xrotation Zrotation
          End Site
          {
            OFFSET 0 -0.7027875951174846 1.2062924140498823
          }
        }
      }
    }
  }
  JOINT rightUpperLeg
  {
    OFFSET -0.8486251390888677 -0.4421577294694363 0
    CHANNELS 3 Yrotation Xrotation Zrotation
    JOINT rightLowerLeg
    {
      OFFSET 0 -4.10147812638609 0
      CHANNELS 3 Yrotation Xrotation Zrotation
      JOINT rightFoot
      {
        OFFSET 0.0002543926476658853 -4.77292286812444 0.007402811231737388
        CHANNELS 3 Yrotation Xrotation Zrotation
        JOINT rightToes
        {
          OFFSET 0 -0.7027875951174846 1.2062924140498823
          CHANNELS 3 Yrotation Xrotation Zrotation
          End Site
          {
            OFFSET 0 -0.7027875951174846 1.2062924140498823
          }
        }
      }
    }
  }
}
MOTION
Frames: 4
Frame Time: 0.03333333333333333
-0.062258947640657425 -0.09502837267246989 0.05751675367355347 3.8292392350879045 -4.230869555492096 3.601461945153348 -1.692300729004005 3.0833853254727006 -2.8076452905765956 -1.1743739886263336 1.5232572988872701 -2.928609598595239 0 0 0 2.8798987187972864 6.329659946593333 -1.2002116168087005 13.098921451214842 -5.017021031966514 -1.4784783821479757 0 0 0 0 0 0 -15.53118899336948 1.139815505938013 -13.287357494735165 -28.855259387314913 11.199419773378258 -56.82002638844775 -6.640407087122535 -0.9733011688796989 0.1423411184206073 1.436226730528755 -21.03505018639244 -4.107118859873363 -1.0148891447483863 -0.5824274648390758 -7.56135006513366 1.543450118179201 0.23635168258089553 -17.3898225064345 0.709808117795798 0.05037873809263079 -8.047139858417374 5.3900424517872105 1.0262327360792032 -27.11311753395008 1.5006381117901848 0.2978832072653156 -17.418524616982985 1.441278270851403 0.269053239285204 -16.518984224233453 2.5278711759378267 -0.2868026018684311 -15.729814810148886 1.536756833072124 0.2346897981378862 -17.419520317991086 1.6224442106611776 0.2631733701632321 -18.42722495536055 3.431111265546481 -0.029470056427673887 -21.1687016358167 1.8304767148991923 0.338313561845611 -20.924773921085826 1.5734355895220025 0.2477375227798452 -17.878975117464716 2.009570198070848 0.6876351831273833 4.716305350168627 26.493931798953 13.311601283216614 21.11022202179929 -1.4277054772089797 -17.900879742837404 11.874786740738942 17.33392084972498 0.9924337430017499 10.919546632269647 20.286358539843004 3.201694150543818 64.41206626527975 1.2347059705207353 -0.18216510728404714 -0.017914575204146424 -2.7207248138751825 -31.89481062107269 7.1933221074064955 1.3237606942170337 -0.503351182378843 6.860237069570587 -1.1454410539496964 0.17668860273532136 17.413071868983042 -0.5598421924968654 0.038642942082269434 8.05426968387928 -4.463810747712933 0.7006684073856098 26.48767964009045 -1.0862976755207372 0.13350342520769123 17.44055162332352 -1.178063118270623 0.13405304349062241 16.541002775409275 -2.1443270616448045 -0.32564214759054144 15.06265334716971 -1.080684199134903 0.16848091926689449 17.442513669000782 -1.2790730667183026 0.20081201480647834 18.45361583503324 -2.848708809772539 -0.14390738127930436 20.508063884121288 -1.429731752892772 0.26280016042673643 20.978565736001528 -1.2197052357750962 0.1968098733846508 17.927311379833082 -0.10204561950976564 -0.29563833943374884 -4.141653014854992 -26.21554547650386 12.685528319758282 -22.579267535626077 -9.679384676181265 -11.131655467310127 -8.58813511172135 10.447111840190576 1.7001681054459568 -3.4952752618387546 10.07796680357296 6.949190155955208 4.704982457258725 2.6323456483595957 -3.7738407440817783 -3.947255020339034 0.000015365473475869263 -7.373731498069638 -0.00000452702642803967 -15.240287194904463 -10.309866959164804 -7.333694378297553 -0.6197885834306033 13.141821293120206 -4.307939324937206 -0.43228884001698326 0.35532125796559144 7.0616061829468135 0.00002534923589566775 -5.108864644572795 0.0000013810545455866097
-0.06512723118066788 -0.09585997667637614 0.055292822420597076 3.9166422140683 -4.171925421133891 3.541073467511947 -1.6802400557264148 3.0966259013718505 -2.807622658869868 -1.1282035092533387 1.5655587945034295 -2.97560481679982 0 0 0 2.8719430057219424 6.403165971652327 -1.3181469575612046 13.048131467994493 -4.720523397911912 -1.6958461701805037 0 0 0 0 0 0 -15.476276418535681 1.1395847279553626 -13.291442120736479 -27.903851418991916 10.673636998847659 -56.71683910216296 -6.405171595048758 -0.9391454659248903 0.13533932532562837 1.7972511190368736 -20.61959910633749 -4.38012640879138 -1.0148891447483863 -0.5824274648390758 -7.56135006513366 1.543450118179201 0.23635168258089553 -17.3898225064345 0.709808117795798 0.05037873809263079 -8.047139858417374 5.3900424517872105 1.0262327360792032 -27.11311753395008 1.5006381117901848 0.2978832072653156 -17.418524616982985 1.441278270851403 0.269053239285204 -16.518984224233453 2.5278711759378267 -0.2868026018684311 -15.729814810148886 1.536756833072124 0.2346897981378862 -17.419520317991086 1.6224442106611776 0.2631733701632321 -18.42722495536055 3.431111265546481 -0.029470056427673887 -21.1687016358167 1.8304767148991923 0.338313561845611 -20.924773921085826 1.5734355895220025 0.2477375227798452 -17.878975117464716 2.009570198070848 0.6876351831273833 4.716305350168627 26.493931798953 13.311601283216614 21.11022202179929 -1.4277054772089797 -17.900879742837404 11.874786740738942 17.417693202647804 0.9965044018380473 10.902964130743957 20.263762168792645 3.260720358580493 64.43007122652004 1.2738557683968335 -0.18793288527699084 -0.018504021001975974 -2.727644712421733 -31.960588274102097 7.19429164995874 1.3302629207200958 -0.5000308894674764 6.836020185909942 -1.1460372514891686 0.17688858682372377 17.42212006504744 -0.5604472024565001 0.03872561140245288 8.063380630050162 -4.456195479030618 0.6961718878561239 26.469193694454273 -1.0862359365508596 0.13347693147232478 17.439703708586592 -1.1780021928896105 0.13402518904919114 16.54019121180668 -2.142000546147642 -0.32622189595708456 15.05025517809488 -1.080968094010106 0.16856752430575728 17.446830881840437 -1.2793462536539735 0.20090782480658115 18.457966431198315 -2.847939067267621 -0.14400963433641306 20.497317333629 -1.4305999707041517 0.26313793818319403 20.992221466458773 -1.2206421616385557 0.19711399202242186 17.941756299895133 -0.09456198851464336 -0.2997422979823336 -4.1509281667759526 -26.20608958470166 12.684522790857308 -22.57575235555786 -9.676150652423173 -11.132951985375055 -8.58797754849009 10.46171606734228 1.4913452174429724 -3.4142117799917027 9.997666763888134 7.173175497944437 4.703174228973647 2.6259615888771917 -3.852448392438563 -3.9593790187562496 -0.000020009233044155717 -7.37556089977226 -0.0000023487115374141346 -15.21846341104612 -10.356156265801097 -7.260588647906156 -0.7353814507674308 13.15899362789781 -4.3084478460042055 -0.4367313912239032 0.34082167270102987 7.046842611180369 0.000008535137618356866 -5.110407997150817 0.000004585413591080151
-0.06749556213617325 -0.09713980760899332 0.0530625656247139 4.089946193827776 -4.083518776681933 3.462829143852256 -1.6662157906075632 3.1153938031809867 -2.81448142177655 -1.0729208987297343 1.6283042609549754 -3.0568909132880555 0 0 0 2.4315265584863335 6.452968058596868 -1.5089083995804848 10.961885197287048 -4.725305827857425 -2.4467481449627613 0 0 0 0 0 0 -15.465278124672308 1.138462327438386 -13.298801285014981 -26.620196647816492 9.995480702815744 -56.632003821476935 -6.024858762715241 -0.8838811728147452 0.1243824119067608 2.258020202257768 -20.38975256653668 -4.757486598304999 -1.0148891447483863 -0.5824274648390758 -7.56135006513366 1.543450118179201 0.23635168258089553 -17.3898225064345 0.709808117795798 0.05037873809263079 -8.047139858417374 5.3900424517872105 1.0262327360792032 -27.11311753395008 1.5006381117901848 0.2978832072653156 -17.418524616982985 1.441278270851403 0.269053239285204 -16.518984224233453 2.5278711759378267 -0.2868026018684311 -15.729814810148886 1.536756833072124 0.2346897981378862 -17.419520317991086 1.6224442106611776 0.2631733701632321 -18.42722495536055 3.431111265546481 -0.029470056427673887 -21.1687016358167 1.8304767148991923 0.338313561845611 -20.924773921085826 1.5734355895220025 0.2477375227798452 -17.878975117464716 2.009570198070848 0.6876351831273833 4.716305350168627 26.493931798953 13.311601283216614 21.11022202179929 -1.4277054772089797 -17.900879742837404 11.874786740738942 17.509438390425956 1.0049926335112107 10.85912045452287 20.261606300855526 3.330840654542254 64.44413717707626 1.2690136437736346 -0.18719956982675104 -0.018453326822132316 -2.8360971194065536 -31.90181790519544 7.306779501805019 1.3378148449254028 -0.49766013700132433 6.7893720805167534 -1.1452100849599003 0.1766260768587475 17.409408626135438 -0.5595767014964993 0.0386098483407969 8.050509782703168 -4.4422496649298076 0.6875437694039042 26.467965851046188 -1.0862806030700904 0.13349626149374494 17.440290239659053 -1.1780460463602749 0.13403707521169458 16.54071851092104 -2.1362369197426885 -0.3273701334666785 15.011745371652177 -1.082299518147012 0.16896778579967897 17.46708559193593 -1.2806611115604665 0.20134865486859976 18.478221519578884 -2.8433004034140272 -0.14467573997681912 20.433459125526813 -1.4303384107504016 0.26303431031444313 20.988030765757998 -1.2204046855720394 0.1970403269292349 17.938164780564016 -0.06217831231978784 -0.3241920164155947 -4.13775244938214 -26.220142111229578 12.680698491801433 -22.579992904168847 -9.671934400719596 -11.134647909331056 -8.587750702415827 10.479353632581518 1.1966311195416122 -3.3062242968720104 9.844103145985503 7.491523458189497 4.674029962891596 2.6079173023576914 -3.9699357742868133 -3.9548361616433887 0.000012114365453639038 -7.377809567659316 -0.0000027673606938858474 -15.190222083918576 -10.422778249624482 -7.177614797951228 -0.9427947447628847 13.18981584123383 -4.325446369048136 -0.4413036558354467 0.31130335794974023 7.037424160192202 0.000005014837524548243 -5.111560906667809 -0.0000035099384146052858
-0.06777281314134598 -0.09776923265782145 0.05236973240971565 4.209301820837021 -4.029716622902175 3.4242848747578245 -1.6621145210652193 3.126284255932366 -2.8241452824639066 -1.0546113486766164 1.6671446111025856 -3.114090159455522 0 0 0 1.96497108331029 6.463272756112183 -1.6276357008022315 8.762512457045217 -4.915869066730969 -3.0872632120029087 0 0 0 0 0 0 -15.501206395836045 1.137573480472646 -13.30111055754043 -25.928182442084196 9.707522777634148 -56.617895738867865 -5.808310125700717 -0.8523646628421889 0.11830235118183274 2.4675907506540846 -20.398830296655305 -4.897732578339335 -1.0148891447483863 -0.5824274648390758 -7.56135006513366 1.543450118179201 0.23635168258089553 -17.3898225064345 0.709808117795798 0.05037873809263079 -8.047139858417374 5.3900424517872105 1.0262327360792032 -27.11311753395008 1.5006381117901848 0.2978832072653156 -17.418524616982985 1.441278270851403 0.269053239285204 -16.518984224233453 2.5278711759378267 -0.2868026018684311 -15.729814810148886 1.536756833072124 0.2346897981378862 -17.419520317991086 1.6224442106611776 0.2631733701632321 -18.42722495536055 3.431111265546481 -0.029470056427673887 -21.1687016358167 1.8304767148991923 0.338313561845611 -20.924773921085826 1.5734355895220025 0.2477375227798452 -17.878975117464716 2.009570198070848 0.6876351831273833 4.716305350168627 26.493931798953 13.311601283216614 21.11022202179929 -1.4277054772089797 -17.900879742837404 11.874786740738942 17.545437580892635 1.0073767371474707 10.83684007884635 20.274582607301284 3.3555125180247893 64.43810168150709 1.24476891118625 -0.1836345125768746 -0.018039941563456896 -2.928347128457151 -31.78177412650202 7.414927676722605 1.3245384984682655 -0.4986157059086839 6.789432598737078 -1.1468075464868652 0.1771107291142949 17.43380960874844 -0.561260750152136 0.03886250203181571 8.075165647040583 -4.443324829430889 0.6891068749423938 26.43263116967153 -1.0874114011580733 0.13380467472231106 17.45747961528721 -1.1791797926134768 0.13434687583305413 16.557910365191688 -2.1344467596079104 -0.3284482537947285 15.020690698755 -1.0816347130426307 0.16876812196117688 17.45689100556806 -1.2799989727833812 0.2011300074252449 18.467992189485336 -2.8442667810319238 -0.14445358469888162 20.443644498638168 -1.4287361906751046 0.2624306326388615 20.962946623034505 -1.2187577468088195 0.1964953893457915 17.912816191776464 -0.07793845271099027 -0.32591461250971987 -4.1111066725558425 -26.214701432798126 12.680010649141447 -22.578023325985985 -9.669790365722394 -11.135528505861828 -8.587588405903372 10.483395702943827 1.0422893915543945 -3.25771384669115 9.75064451290266 7.646775809678079 4.652441047609899 2.5935374292641833 -4.028071604695217 -3.94430033486703 0.00000924935784621377 -7.378825432090446 -0.0000044495928867131394 -15.168829056577827 -10.460014919420262 -7.138133505264183 -1.0860933469808876 13.205378803708923 -4.352419088130764 -0.4435378989634142 0.2951157963379788 7.0258503642523 0.000001545183911285362 -5.111419900150827 -0.0000013089611476605632
